HIERARCHY
ROOT Hips
{
    OFFSET 0.000000 0.000000 0.000000
    CHANNELS 6 Xposition Yposition Zposition Zrotation Xrotation Yrotation
    JOINT Spine
    {
        OFFSET -0.000000 8.603107 0.000000
        CHANNELS 3 Zrotation Xrotation Yrotation
        JOINT Spine1
        {
            OFFSET -0.000000 23.906662 0.000000
            CHANNELS 3 Zrotation Xrotation Yrotation
            JOINT Neck
            {
                OFFSET -0.000000 23.808481 2.164407
                CHANNELS 3 Zrotation Xrotation Yrotation
                JOINT Head
                {
                    OFFSET -0.000000 14.688231 -2.098319
                    CHANNELS 3 Zrotation Xrotation Yrotation
                    End Site
                    {
                        OFFSET -0.000000 26.228985 0.000000
                    }
                }
            }
            JOINT LeftShoulder
            {
                OFFSET 4.178941 22.658146 -0.129871
                CHANNELS 3 Zrotation Xrotation Yrotation
                JOINT LeftArm
                {
                    OFFSET 9.497952 0.000000 0.000000
                    CHANNELS 3 Zrotation Xrotation Yrotation
                    JOINT LeftForeArm
                    {
                        OFFSET 38.855015 0.000000 0.000000
                        CHANNELS 3 Zrotation Xrotation Yrotation
                        JOINT LeftHand
                        {
                            OFFSET 24.940550 0.000000 0.000000
                            CHANNELS 3 Zrotation Xrotation Yrotation
                            End Site
                            {
                                OFFSET 15.737392 0.000000 0.000000
                            }
                        }
                    }
                }
            }
            JOINT RightShoulder
            {
                OFFSET -4.145384 22.658146 -0.129871
                CHANNELS 3 Zrotation Xrotation Yrotation
                JOINT RightArm
                {
                    OFFSET -9.497952 0.000000 0.000000
                    CHANNELS 3 Zrotation Xrotation Yrotation
                    JOINT RightForeArm
                    {
                        OFFSET -38.855015 0.000000 0.000000
                        CHANNELS 3 Zrotation Xrotation Yrotation
                        JOINT RightHand
                        {
                            OFFSET -24.940550 0.000000 0.000000
                            CHANNELS 3 Zrotation Xrotation Yrotation
                            End Site
                            {
                                OFFSET -15.737392 0.000000 0.000000
                            }
                        }
                    }
                }
            }
        }
    }
    JOINT LeftUpLeg
    {
        OFFSET 10.491594 0.000000 0.000000
        CHANNELS 3 Zrotation Xrotation Yrotation
        JOINT LeftLeg
        {
            OFFSET -0.000000 -46.080647 0.000000
            CHANNELS 3 Zrotation Xrotation Yrotation
            JOINT LeftFoot
            {
                OFFSET -0.000000 -50.184704 0.000000
                CHANNELS 3 Zrotation Xrotation Yrotation
                JOINT LeftToeBase
                {
                    OFFSET -0.000000 -6.819536 15.737392
                    CHANNELS 3 Zrotation Xrotation Yrotation
                    End Site
                    {
                        OFFSET -0.000000 0.000000 4.196638
                    }
                }
            }
        }
    }
    JOINT RightUpLeg
    {
        OFFSET -10.491594 0.000000 0.000000
        CHANNELS 3 Zrotation Xrotation Yrotation
        JOINT RightLeg
        {
            OFFSET -0.000000 -46.080647 0.000000
            CHANNELS 3 Zrotation Xrotation Yrotation
            JOINT RightFoot
            {
                OFFSET -0.000000 -50.184704 0.000000
                CHANNELS 3 Zrotation Xrotation Yrotation
                JOINT RightToeBase
                {
                    OFFSET -0.000000 -6.819536 15.737392
                    CHANNELS 3 Zrotation Xrotation Yrotation
                    End Site
                    {
                        OFFSET -0.000000 0.000000 4.196638
                    }
                }
            }
        }
    }
}
MOTION
Frames:    14
Frame Time:    0.008333
-109.485641    104.383514    28.447651    0.651018    -2.086265    92.533768    1.608122    -7.069702    1.106015    0.776457    4.270412    0.977758    5.929421    14.102817    1.715937    -0.011275    -1.412658    1.663623    14.902549    -1.524487    -12.093759    -18.165863    -2.141957    10.311917    1.949241    -5.201292    0.865406    1.239502    -5.183924    2.972521    -14.715543    2.070613    -8.158414    19.863525    -7.846289    -0.523946    -1.596042    -8.305729    1.579740    -9.396314    -7.862477    -5.176308    2.367991    -0.992624    -0.886328    -2.596180    12.606727    -6.716864    4.083250    -7.616891    9.357365    0.000000    0.000000    0.000000    3.335398    4.674623    -0.639381    1.778268    0.242825    -3.413667    -2.153141    0.605922    -12.016336    0.000000    0.000000    0.000000    
-109.441971    104.380165    28.444675    0.662140    -2.098450    92.533592    1.586314    -7.074763    1.131884    0.813184    4.317764    1.003159    6.046348    13.840771    1.736024    -0.178221    -0.986818    1.642132    14.943723    -1.563432    -12.119475    -18.206530    -2.201921    10.287114    2.017178    -5.294429    0.886338    1.049054    -5.282718    2.988195    -14.716612    2.042215    -8.241442    19.876564    -7.776369    -0.505580    -1.597888    -8.361606    1.623604    -9.384071    -7.910661    -5.270535    2.380402    -0.964307    -0.884897    -2.603333    12.620610    -6.678715    4.083250    -7.616891    9.357365    0.000000    0.000000    0.000000    3.352700    4.722335    -0.645785    1.764651    0.219710    -3.391818    -2.109355    0.601318    -12.032763    0.000000    0.000000    0.000000    
-109.423004    104.381271    28.442505    0.648123    -2.100727    92.537369    1.576776    -7.098788    1.136019    0.824326    4.344517    1.007007    6.055467    13.796659    1.728220    -0.186105    -0.909951    1.630222    14.952808    -1.574278    -12.122390    -18.218582    -2.211375    10.283661    2.033268    -5.296608    0.873438    0.989800    -5.286170    3.008088    -14.719927    2.029351    -8.283277    19.888142    -7.735445    -0.475083    -1.559822    -8.328932    1.595708    -9.388036    -7.891343    -5.115160    2.378906    -0.976842    -0.868878    -2.593808    12.635722    -6.711566    4.083250    -7.616891    9.357365    0.000000    0.000000    0.000000    3.352685    4.728063    -0.626877    1.765659    0.206537    -3.410198    -2.114876    0.604506    -12.031977    0.000000    0.000000    0.000000    
-109.402229    104.382881    28.441221    0.635880    -2.107139    92.550842    1.604010    -7.118685    1.117137    0.788446    4.360364    0.987345    6.048493    13.796591    1.755276    -0.188290    -0.887044    1.658244    14.954252    -1.604896    -12.065536    -18.222532    -2.156965    10.275859    1.991705    -5.188885    0.836114    1.034561    -5.175986    3.044129    -14.730890    2.024746    -8.255258    19.930887    -7.245238    -0.514204    -1.550260    -8.567473    1.705172    -9.399526    -8.119579    -5.222052    2.386763    -0.986828    -0.880075    -2.602725    12.661888    -6.744133    4.083250    -7.616891    9.357365    0.000000    0.000000    0.000000    3.360618    4.728354    -0.644033    1.762321    0.198310    -3.415231    -2.101332    0.613559    -12.018554    0.000000    0.000000    0.000000    
-109.382996    104.383232    28.438860    0.623049    -2.108320    92.577675    1.605674    -7.113205    1.098377    0.778838    4.326112    0.969168    6.033163    13.849996    1.747659    -0.164805    -0.921554    1.657186    14.938159    -1.582294    -12.059815    -18.208479    -2.150950    10.279188    1.994861    -5.183916    0.816399    1.032637    -5.170793    3.038934    -14.725609    2.032354    -8.244817    19.953438    -6.871737    -0.531134    -1.566878    -8.752280    1.777313    -9.408749    -8.291155    -5.366655    2.389419    -0.985526    -0.870776    -2.598139    12.635776    -6.780124    4.083250    -7.616891    9.357365    0.000000    0.000000    0.000000    3.363227    4.738162    -0.651590    1.762156    0.181947    -3.426447    -2.115588    0.613752    -12.022127    0.000000    0.000000    0.000000    
-109.361992    104.386971    28.438267    0.596869    -2.110750    92.599724    1.598830    -7.107332    1.083559    0.783738    4.241093    0.955283    6.047850    14.033929    1.739456    -0.201875    -1.120280    1.652753    14.906182    -1.556550    -12.109852    -18.197443    -2.123131    10.336536    1.997851    -5.195436    0.800716    1.079423    -5.181216    2.997086    -14.717031    2.057062    -8.208233    19.964958    -6.870278    -0.536462    -1.583546    -8.755675    1.746909    -9.417118    -8.296424    -5.340972    2.388445    -1.015129    -0.879658    -2.598492    12.656028    -6.731734    4.083250    -7.616891    9.357365    0.000000    0.000000    0.000000    3.364694    4.730974    -0.649553    1.766728    0.169886    -3.433504    -2.086910    0.622125    -12.048823    0.000000    0.000000    0.000000    
-109.335564    104.390076    28.437256    0.588735    -2.111592    92.618050    1.603638    -7.067635    1.064683    0.762083    4.117411    0.938327    6.058052    14.313341    1.716292    -0.211711    -1.470814    1.642176    14.890298    -1.498053    -12.158250    -18.184456    -2.111337    10.396128    2.022330    -5.252215    0.748613    0.715472    -5.245439    3.206203    -14.643623    2.122331    -8.125969    19.918062    -6.954010    -0.570680    -1.552921    -8.698079    1.738100    -9.460494    -8.237875    -5.334372    2.388776    -1.014494    -0.883284    -2.598930    12.659194    -6.733916    4.083250    -7.616891    9.357365    0.000000    0.000000    0.000000    3.370859    4.754477    -0.635482    1.762148    0.135446    -3.491569    -2.098268    0.646272    -12.025229    0.000000    0.000000    0.000000    
-109.298363    104.396347    28.437788    0.593670    -2.115989    92.640953    1.642806    -7.132167    1.066510    0.654161    4.236833    0.939976    6.175581    14.464940    1.684742    -0.287376    -1.927813    1.603050    15.089233    -1.533269    -12.144973    -18.293043    -2.120782    10.378758    1.884314    -5.408066    0.704431    1.215973    -5.385472    3.230134    -14.600453    2.041588    -8.186977    19.935474    -6.955191    -0.549346    -1.531220    -8.741154    1.737352    -9.453707    -8.280694    -5.346087    2.396562    -0.990542    -0.901659    -2.601506    12.653054    -6.714024    4.083250    -7.616891    9.357365    0.000000    0.000000    0.000000    3.381301    4.800494    -0.616149    1.758362    0.099560    -3.488852    -2.060284    0.661599    -12.073237    0.000000    0.000000    0.000000    
-109.262871    104.403778    28.435791    0.596965    -2.116224    92.667969    1.627202    -7.141984    1.048629    0.669288    4.223199    0.922396    6.194530    14.809762    1.668817    -0.350985    -2.581708    1.594052    15.079019    -1.497921    -12.202575    -18.283880    -2.142597    10.433024    1.865092    -5.418601    0.723750    1.246998    -5.395535    3.210311    -14.576447    2.079909    -8.124353    19.918316    -7.063755    -0.592247    -1.536846    -8.764804    1.735374    -9.394505    -8.308954    -5.322866    2.396420    -0.964398    -0.947415    -2.602047    12.640144    -6.699195    4.083250    -7.616891    9.357365    0.000000    0.000000    0.000000    3.388277    4.834208    -0.630679    1.755590    0.077974    -3.517932    -2.039677    0.692913    -12.074606    0.000000    0.000000    0.000000    
-109.231476    104.411079    28.433117    0.590016    -2.112002    92.688828    1.622308    -7.140564    1.030099    0.652434    4.180970    0.905106    6.310479    15.154640    1.681330    -0.551754    -3.231367    1.589799    15.077366    -1.429629    -12.264409    -18.262663    -2.192918    10.503895    1.871679    -5.410490    0.724264    1.193641    -5.388904    3.215561    -14.558703    2.064824    -8.044218    19.916025    -7.251956    -0.651295    -1.561489    -8.695774    1.710454    -9.325319    -8.244798    -5.300741    2.391815    -0.951465    -0.974383    -2.608817    12.624400    -6.652935    4.083250    -7.616891    9.357365    0.000000    0.000000    0.000000    3.387084    4.851758    -0.615621    1.753432    0.068263    -3.513732    -2.034951    0.710348    -12.121686    0.000000    0.000000    0.000000    
-109.206024    104.414619    28.429958    0.581986    -2.109606    92.730026    1.603019    -7.055178    0.978737    0.696457    3.959753    0.855810    6.330213    15.632382    1.716911    -0.704175    -3.859717    1.625323    14.893227    -1.288905    -12.369486    -18.124735    -2.260564    10.627776    1.918736    -5.352140    0.767447    1.109273    -5.333884    3.220545    -14.514666    2.201866    -7.833084    19.864964    -7.486402    -0.755658    -1.670202    -8.516044    1.666021    -8.910695    -8.093484    -5.165520    2.386851    -0.952557    -1.004073    -2.603102    12.631640    -6.681224    4.083250    -7.616891    9.357365    0.000000    0.000000    0.000000    3.390686    4.855341    -0.636240    1.746038    0.075290    -3.544699    -2.031686    0.713352    -12.100576    0.000000    0.000000    0.000000    
-109.186623    104.421593    28.418945    0.566321    -2.072798    92.765488    1.558185    -7.075776    0.958843    0.698364    3.970471    0.838374    6.454559    15.831499    1.746024    -0.913901    -4.241109    1.627181    14.890314    -1.239237    -12.419873    -18.112595    -2.295796    10.649060    1.979382    -5.150563    0.821310    0.702818    -5.144403    3.321643    -14.485592    2.196618    -7.782498    19.832951    -7.690672    -0.787914    -1.680270    -8.396390    1.626127    -8.908339    -7.976599    -5.134803    2.338259    -0.965823    -1.048602    -2.596764    12.635337    -6.649824    4.083250    -7.616891    9.357365    0.000000    0.000000    0.000000    3.348115    4.841602    -0.666666    1.753454    0.096307    -3.529644    -2.024982    0.703484    -12.138329    0.000000    0.000000    0.000000    
-109.166977    104.413750    28.420120    0.569291    -2.106076    92.809586    1.572685    -7.082058    0.938694    0.716565    3.996587    0.816448    6.503943    15.983385    1.786217    -0.972685    -4.538187    1.665189    14.898932    -1.191277    -12.445813    -18.120256    -2.292533    10.639605    1.998984    -5.149557    0.873440    0.666732    -5.145515    3.316348    -14.480587    2.224596    -7.749611    19.831581    -8.303276    -0.746249    -1.666383    -8.246607    1.517646    -9.334098    -7.810872    -5.116487    2.379251    -0.967526    -1.061651    -2.604094    12.652932    -6.688727    4.083250    -7.616891    9.357365    0.000000    0.000000    0.000000    3.391056    4.837422    -0.668864    1.744008    0.130405    -3.530694    -1.960823    0.661552    -12.319133    0.000000    0.000000    0.000000    
-109.147369    104.412888    28.416937    0.578414    -2.109625    92.845276    1.557063    -7.124370    0.922929    0.737858    4.108021    0.799553    6.510081    16.053648    1.818531    -0.950713    -4.728747    1.705574    14.937247    -1.174633    -12.468254    -18.157625    -2.272586    10.626648    2.007427    -5.164869    0.921317    0.649256    -5.162143    3.333547    -14.499300    2.215374    -7.727400    19.851379    -8.272490    -0.753641    -1.695048    -8.307756    1.494974    -9.388182    -7.863986    -5.185820    2.380387    -0.964761    -1.061947    -2.598226    12.676516    -6.687090    4.083250    -7.616891    9.357365    0.000000    0.000000    0.000000    3.399278    4.838778    -0.684331    1.740570    0.170222    -3.528675    -1.975407    0.641521    -12.352848    0.000000    0.000000    0.000000    
